<svg width="512" height="512" viewBox="0 0 48 48" fill="none" xmlns="http://www.w3.org/2000/svg" data-fluent-source="Shield 48 Filled">
  <defs>
    <linearGradient id="aegosTile" x1="4" y1="3" x2="44" y2="46" gradientUnits="userSpaceOnUse">
      <stop stop-color="#2F8DF4"/>
      <stop offset="0.52" stop-color="#447AEF"/>
      <stop offset="1" stop-color="#675FE7"/>
    </linearGradient>
    <linearGradient id="aegosRoute" x1="16" y1="15" x2="32" y2="34" gradientUnits="userSpaceOnUse">
      <stop stop-color="#2E86EF"/>
      <stop offset="1" stop-color="#5D63E8"/>
    </linearGradient>
  </defs>
  <rect x="1" y="1" width="46" height="46" rx="11" fill="url(#aegosTile)"/>
  <path d="M3.5 13.5C9 7.7 16 4.4 24 4.4C32 4.4 39 7.7 44.5 13.5" stroke="white" stroke-opacity="0.16" stroke-width="1.4" stroke-linecap="round"/>
  <path d="M24.8646 4.34751C24.3811 3.88416 23.6184 3.88416 23.1349 4.34751C20.3762 6.99127 16.4502 8.42541 13.0979 9.18734C11.4389 9.56438 9.95899 9.76829 8.89553 9.87765C8.36453 9.93226 7.93932 9.9631 7.64987 9.98021C7.50519 9.98876 7.39459 9.99387 7.32181 9.9968C7.28543 9.99827 7.25851 9.99919 7.24154 9.99973L7.2236 10.0003L7.2202 10.0004C6.54169 10.0165 5.99999 10.5713 6 11.2501V20.75C6 25.587 7.24269 30.4082 10.0977 34.5249C12.9592 38.6508 17.3886 41.9936 23.6269 43.9431C23.8697 44.019 24.1298 44.019 24.3726 43.9431C36.9406 40.0156 42 30.4968 42 21V11.25C42 10.5711 41.4577 10.0164 40.7791 10.0003L40.7764 10.0003L40.7585 9.99973C40.7415 9.99919 40.7146 9.99827 40.6782 9.9968C40.6054 9.99387 40.4948 9.98876 40.3501 9.98021C40.0606 9.9631 39.6354 9.93226 39.1044 9.87765C38.0409 9.76829 36.5609 9.56438 34.9019 9.18733C31.5494 8.42541 27.6233 6.99126 24.8646 4.34751Z" fill="white" fill-opacity="0.96"/>
  <path d="M15.7 34L24 14.7L32.3 34M19.4 26.8H28.6" stroke="url(#aegosRoute)" stroke-width="3.35" stroke-linecap="round" stroke-linejoin="round"/>
  <circle cx="24" cy="14.7" r="1.75" fill="#3B7FEB"/>
  <circle cx="15.7" cy="34" r="1.75" fill="#4A73EC"/>
  <circle cx="32.3" cy="34" r="1.75" fill="#5C65E8"/>
</svg>
